<?xml version="1.0" standalone="no"?><!DOCTYPE svg PUBLIC "-//W3C//DTD SVG 1.1//EN" "http://www.w3.org/Graphics/SVG/1.1/DTD/svg11.dtd"><svg t="1671342765757" class="icon" viewBox="0 0 1024 1024" version="1.1" xmlns="http://www.w3.org/2000/svg" p-id="2749" data-spm-anchor-id="a313x.7781069.0.i0" width="32" height="32" xmlns:xlink="http://www.w3.org/1999/xlink"><path d="M438.857143 950.857143h512v-365.714286h-237.714286q-22.857143 0-38.857143-16t-16-38.857143V292.571429H438.857143v658.285714z m146.285714-822.857143v-36.571429q0-7.428571-5.428571-12.857142T566.857143 73.142857H164.571429q-7.428571 0-12.857143 5.428572T146.285714 91.428571v36.571429q0 7.428571 5.428572 12.857143T164.571429 146.285714h402.285714q7.428571 0 12.857143-5.428571t5.428571-12.857143z m146.285714 384h170.857143l-170.857143-170.857143v170.857143z m292.571429 73.142857v384q0 22.857143-16 38.857143t-38.857143 16H420.571429q-22.857143 0-38.857143-16t-16-38.857143v-91.428571H54.857143q-22.857143 0-38.857143-16t-16-38.857143V54.857143q0-22.857143 16-38.857143T54.857143 0h621.714286q22.857143 0 38.857142 16t16 38.857143v187.428571q12 7.428571 20.571429 16l233.142857 233.142857q16 16 27.428572 43.428572t11.428571 50.285714z" p-id="2750" fill="#1e24d7"></path></svg>